# xmcd
#
# Track frame offsets: 
#        150
#        23617
#        37400
#        54647
#        70332
#        85172
#        102500
#        116777
#        131377
#        142072
#        156759
#
# Disc length: 2320 seconds
#
# Revision: 0
# Processed by: cddbd v1.5.2PL0 Copyright (c) Steve Scherf et al.
# Submitted via: ExactAudioCopy v1.3
#
DISCID=9e090e0b
DTITLE=Caroline Jones - Bare Feet
DYEAR=2018
DGENRE=Country
TTITLE0=The Difference (Goshdamn)
TTITLE1=Rise (Sing It Loud)
TTITLE2=Bare Feet
TTITLE3=Country Girl
TTITLE4=Tough Guys
TTITLE5=Worth the Wait
TTITLE6=Your Heart is Mine
TTITLE7=Twilight's Cryin'
TTITLE8=One of These Days
TTITLE9=Sunshine
TTITLE10=Brown Eyed Girl
EXTD=
EXTT0=
EXTT1=
EXTT2=
EXTT3=
EXTT4=
EXTT5=
EXTT6=
EXTT7=
EXTT8=
EXTT9=
EXTT10=
PLAYORDER=
